<?xml version="1.0" encoding="UTF-8" standalone="no"?>
<!DOCTYPE svg PUBLIC "-//W3C//DTD SVG 1.1//EN" "http://www.w3.org/Graphics/SVG/1.1/DTD/svg11.dtd">
<svg width="100%" height="100%" viewBox="0 0 569 278" version="1.1" xmlns="http://www.w3.org/2000/svg" xmlns:xlink="http://www.w3.org/1999/xlink" xml:space="preserve" xmlns:serif="http://www.serif.com/" style="fill-rule:evenodd;clip-rule:evenodd;stroke-linejoin:round;stroke-miterlimit:1.41421;">
    <g id="Mesa-de-trabajo1" serif:id="Mesa de trabajo1" transform="matrix(0.444368,0,0,0.347496,0,0)">
        <rect x="0" y="0" width="1280" height="800" style="fill:none;"/>
        <clipPath id="_clip1">
            <rect x="0" y="0" width="1280" height="800"/>
        </clipPath>
        <g clip-path="url(#_clip1)">
            <g transform="matrix(1.02381,0,0,1.30922,-337.991,-171.716)">
                <path d="M561.648,475.227C543.874,481.303 524.822,484.57 505.013,484.57C407.487,484.57 328.308,405.391 328.308,307.864C328.308,210.338 407.487,131.159 505.013,131.159C536.179,131.159 565.472,139.245 590.859,153.454C590.859,153.454 590.864,153.458 590.876,153.464C679.378,200.874 664.986,335.049 577.236,307.766C577.236,307.766 566.456,285.53 531.728,279.589C527.477,278.861 523.125,278.494 518.687,278.494C475.142,278.494 439.789,313.847 439.789,357.393C439.789,397.35 469.556,430.41 508.15,435.569C515.752,405.258 536.392,378.122 559.448,360.013C570.295,351.478 582.953,345.747 596.295,343.197C603.112,341.862 610.093,341.369 617.109,341.741C636.257,342.716 659.517,342.79 678.538,341.156L679.577,341.071C684.753,340.634 689.598,340.048 693.939,339.319C709.695,336.671 732.228,326.121 739.871,321.113C741.001,320.372 742.581,319.122 744.576,317.641C748.072,315.202 749.945,311.039 749.452,306.804C748.96,302.57 746.181,298.948 742.218,297.377C742.218,297.377 742.218,297.377 742.218,297.377C741.008,296.89 740.155,295.787 739.989,294.493C739.822,293.199 740.367,291.917 741.414,291.139C742.041,290.708 742.68,290.281 743.352,289.893C753.303,284.148 766.917,289.071 773.735,300.88C773.735,300.881 773.735,300.881 773.736,300.882C775.312,303.612 778.092,305.43 781.224,305.781C792.062,307.019 804.516,312.753 818.119,326.693C818.119,326.693 827.158,335.018 834.129,339.319C841.101,343.619 834.315,352.345 830.424,354.196C830.424,354.196 827.522,361.568 818.119,363.603C818.119,363.603 788.962,383.703 766.247,383.029L766.247,383.029C770.202,388.894 772.882,394.098 773.704,397.848C773.704,397.848 789.29,410.747 804.266,405.164C818.08,400.015 830.592,403.771 838.973,409.346C840.618,410.485 841.24,412.621 840.463,414.465C839.685,416.309 837.722,417.356 835.758,416.974C832.134,416.097 827.899,415.509 823.167,415.606C815.464,415.766 803.103,419.254 797.728,422.792C793.205,425.763 788.359,428.21 783.284,430.084C775.024,433.133 765.054,436.276 754.39,436.819C736.42,437.735 721.014,430.195 712.144,422.297C707.141,424.181 700.94,425.71 693.939,426.743C688.655,427.549 682.915,428.075 676.89,428.274L671.389,428.364C666.4,428.364 661.569,428.144 656.962,427.663C648.847,426.545 636.079,427.145 640,432.158C651.736,447.161 639.387,499.416 633.675,508.21C652.916,506.817 670.113,515.269 677.403,520.535C683.042,524.609 691.278,542.629 677.403,539.831L662.897,536.504L662.85,536.495C651.116,534.067 638.158,532.743 624.525,532.743C620.223,532.743 615.989,532.875 611.84,533.131C603.468,533.653 595.789,528.487 593.116,520.535C592.344,518.093 591.412,515.655 590.354,513.222L590.354,513.222C587.981,507.927 584.387,501.23 580.887,496.135C575.201,487.857 568.626,480.804 561.648,475.227Z" style="fill:white;"/>
            </g>
            <g transform="matrix(4.96894,0,0,6.35414,-941.132,-4778.08)">
                <path d="M369.167,819.731C367.807,822.362 365.947,824.901 363.589,827.35C361.23,829.799 358.611,831.772 355.731,833.269C352.851,834.766 350.051,835.514 347.33,835.514C342.976,835.514 339.54,833.927 337.023,830.752C334.506,827.577 333.248,823.768 333.248,819.323C333.248,816.284 333.894,813.132 335.186,809.867C336.479,806.601 338.304,803.858 340.663,801.635C343.021,799.413 345.742,798.302 348.826,798.302C350.958,798.302 352.579,798.959 353.69,800.275C354.802,801.59 355.357,803.336 355.357,805.513C355.357,809.141 353.702,812.735 350.391,816.296C347.08,819.856 343.135,821.523 338.554,821.296C339.007,824.062 340.051,826.262 341.683,827.895C343.316,829.527 345.47,830.344 348.146,830.344C351.139,830.344 354.325,829.176 357.704,826.84C361.083,824.504 363.838,821.477 365.97,817.758C366.06,817.577 366.242,817.35 366.514,817.078C366.922,816.806 367.308,816.67 367.67,816.67C368.396,816.67 368.929,816.987 369.269,817.622C369.609,818.257 369.575,818.96 369.167,819.731ZM350.799,807.214C350.799,806.125 350.504,805.082 349.915,804.084C349.325,803.087 348.6,802.588 347.738,802.588L347.194,802.588L346.309,802.86C344.359,803.268 342.613,804.776 341.071,807.384C339.529,809.992 338.69,812.769 338.554,815.717C339.28,816.08 340.187,816.262 341.275,816.262C342.772,816.262 344.268,815.797 345.765,814.867C347.262,813.937 348.475,812.758 349.405,811.329C350.334,809.901 350.799,808.529 350.799,807.214Z" style="fill:white;fill-rule:nonzero;"/>
                <path d="M401.209,819.731C399.848,822.362 397.989,824.901 395.631,827.35C393.272,829.799 390.653,831.772 387.773,833.269C384.893,834.766 382.093,835.514 379.372,835.514C375.018,835.514 371.582,833.927 369.065,830.752C366.548,827.577 365.289,823.768 365.289,819.323C365.289,816.284 365.936,813.132 367.228,809.867C368.521,806.601 370.346,803.858 372.705,801.635C375.063,799.413 377.784,798.302 380.868,798.302C383,798.302 384.621,798.959 385.732,800.275C386.843,801.59 387.399,803.336 387.399,805.513C387.399,809.141 385.744,812.735 382.433,816.296C379.122,819.856 375.176,821.523 370.596,821.296C371.049,824.062 372.092,826.262 373.725,827.895C375.358,829.527 377.512,830.344 380.188,830.344C383.181,830.344 386.367,829.176 389.746,826.84C393.125,824.504 395.88,821.477 398.012,817.758C398.102,817.577 398.284,817.35 398.556,817.078C398.964,816.806 399.35,816.67 399.712,816.67C400.438,816.67 400.971,816.987 401.311,817.622C401.651,818.257 401.617,818.96 401.209,819.731ZM382.841,807.214C382.841,806.125 382.546,805.082 381.957,804.084C381.367,803.087 380.641,802.588 379.78,802.588L379.235,802.588L378.351,802.86C376.401,803.268 374.655,804.776 373.113,807.384C371.571,809.992 370.732,812.769 370.596,815.717C371.321,816.08 372.228,816.262 373.317,816.262C374.814,816.262 376.31,815.797 377.807,814.867C379.304,813.937 380.517,812.758 381.446,811.329C382.376,809.901 382.841,808.529 382.841,807.214Z" style="fill:white;fill-rule:nonzero;"/>
                <path d="M446.653,820.139C445.337,822.226 443.693,824.142 441.72,825.888C439.748,827.634 437.48,829.176 434.918,830.514C432.355,831.852 429.6,832.895 426.652,833.643C423.704,834.391 420.801,834.766 417.944,834.766C415.45,834.766 412.955,834.493 410.461,833.949C407.967,833.405 405.54,832.566 403.182,831.432C403,855.651 402.343,870.096 401.209,874.767C400.665,876.808 399.554,877.828 397.876,877.828C396.968,877.828 396.129,877.511 395.358,876.876C393,874.381 391.231,871.025 390.052,866.807C388.873,862.59 388.283,857.964 388.283,852.929C388.283,846.58 389.122,840.253 390.8,833.949C392.479,827.645 394.882,822.157 398.012,817.486C398.193,817.169 398.284,816.284 398.284,814.833C398.284,813.382 398.238,811.624 398.148,809.561C398.057,807.497 398.012,806.443 398.012,806.397C397.921,804.13 397.513,801.34 396.787,798.03L396.787,797.894C396.651,797.077 396.934,796.261 397.637,795.445C398.34,794.628 399.032,794.22 399.712,794.22C400.03,794.22 400.438,794.424 400.937,794.832L401.073,795.104C401.436,795.694 401.765,796.805 402.059,798.438C402.354,800.071 402.536,801.386 402.604,802.384C402.672,803.381 402.74,804.731 402.808,806.431C402.876,808.132 402.91,809.459 402.91,810.411C405.722,807.871 408.67,805.91 411.754,804.527C414.838,803.143 417.785,802.452 420.597,802.452C422.729,802.452 424.679,802.882 426.448,803.744C429.759,805.332 432.004,807.27 433.183,809.561C434.362,811.851 434.906,814.788 434.815,818.371C434.815,819.686 434.543,821.228 433.999,822.997C433.455,824.765 432.707,826.239 431.754,827.418C435.473,825.514 439.215,822.452 442.979,818.234C443.523,817.554 444.181,817.214 444.952,817.214C445.36,817.214 445.768,817.361 446.176,817.656C446.585,817.951 446.845,818.325 446.959,818.779C447.072,819.232 446.97,819.686 446.653,820.139ZM429.373,819.731C429.01,816.239 427.979,813.37 426.278,811.125C424.577,808.88 422.117,807.758 418.897,807.758C416.221,807.758 413.5,808.529 410.733,810.071C407.967,811.613 405.586,813.858 403.59,816.806C403.227,817.441 403.046,818.847 403.046,821.024C403.046,823.699 403.318,825.264 403.862,825.718C407.128,828.439 410.983,829.799 415.427,829.799C419.373,829.799 422.774,829.028 425.632,827.486C428.489,825.944 429.736,823.359 429.373,819.731ZM398.964,829.663C398.964,829.165 398.783,828.609 398.42,827.997C398.057,827.384 397.785,827.282 397.603,827.691C394.429,835.083 392.841,842.702 392.841,850.548C392.841,853.768 393.193,857.431 393.896,861.535C394.599,865.64 395.835,868.372 397.603,869.733C397.83,868.962 398.046,866.547 398.25,862.488C398.454,858.428 398.613,853.905 398.726,848.916C398.839,843.927 398.907,839.89 398.93,836.806C398.953,833.722 398.964,831.341 398.964,829.663Z" style="fill:white;fill-rule:nonzero;"/>
            </g>
        </g>
    </g>
</svg>
