<svg xmlns="http://www.w3.org/2000/svg" xmlns:xlink="http://www.w3.org/1999/xlink" version="1.1" x="0px" y="0px" viewBox="0 0 30 24.61375" enable-background="new 0 0 30 19.691" xml:space="preserve"><path d="M24.598,5.378c0-0.296-0.115-0.574-0.322-0.777c-0.205-0.209-0.489-0.329-0.781-0.329H4.836  c-0.291,0-0.576,0.12-0.777,0.324C3.848,4.802,3.732,5.081,3.732,5.377v0.5H0v5.851h3.732v5.311H1.7v1.325  c0,0.354,0.138,0.688,0.39,0.939c0.252,0.25,0.585,0.388,0.938,0.388h22.274c0.353,0,0.687-0.139,0.938-0.389s0.39-0.584,0.39-0.938  v-1.325H24.6V5.378H24.598z M8.836,11.728V6.752H22.12v10.285H6.211v-5.31L8.836,11.728L8.836,11.728z M4.607,5.378  c0-0.042,0.011-0.105,0.07-0.163c0.043-0.043,0.102-0.068,0.159-0.068h18.658c0.06,0,0.116,0.025,0.163,0.073  c0.055,0.053,0.066,0.116,0.066,0.159v11.659h-0.729V5.878H8.836H8.398H4.607V5.378z M0.875,6.752h7.087v4.103H0.875V6.752z   M5.336,11.728v5.31H4.607v-5.31H5.336z M25.755,17.912v0.451c0,0.121-0.048,0.234-0.133,0.319c-0.086,0.086-0.2,0.133-0.32,0.133  H3.027c-0.121,0-0.235-0.047-0.321-0.133c-0.085-0.085-0.132-0.197-0.132-0.319v-0.451h1.158h1.604h17.659H24.6H25.755z"/><path d="M14.165,16.105c2.437,0,4.42-1.981,4.42-4.419c0-2.436-1.983-4.418-4.42-4.418s-4.418,1.982-4.418,4.418  C9.746,14.123,11.729,16.105,14.165,16.105z M12.771,14.944c0.291-0.488,0.806-0.808,1.394-0.808s1.103,0.318,1.396,0.807  c-0.429,0.185-0.899,0.287-1.396,0.287S13.199,15.127,12.771,14.944z M13.275,11.685c0-0.489,0.398-0.889,0.89-0.889  s0.892,0.398,0.892,0.889c0,0.492-0.4,0.894-0.892,0.894S13.275,12.177,13.275,11.685z M14.165,8.142  c1.956,0,3.546,1.59,3.546,3.544c0,1.144-0.553,2.149-1.396,2.799c-0.346-0.575-0.902-0.984-1.555-1.144  c0.68-0.246,1.17-0.892,1.17-1.656c0-0.972-0.791-1.763-1.766-1.763c-0.973,0-1.766,0.791-1.766,1.763c0,0.765,0.49,1.41,1.17,1.655  c-0.652,0.158-1.211,0.568-1.555,1.145c-0.842-0.648-1.395-1.655-1.395-2.799C10.621,9.733,12.21,8.142,14.165,8.142z"/><rect x="7.051" y="0.001" width="3.947" height="0.874"/><rect x="8.795" y="1.424" width="7.219" height="0.875"/><rect x="1.93" y="9.077" width="2.398" height="0.874"/><rect x="1.93" y="7.656" width="4.977" height="0.874"/><path d="M30,13.037l-4.266-1.545l1.548,4.266l1.05-1.052l0.939,0.938l0.617-0.617l-0.938-0.939L30,13.037z M27.193,12.95l1.217,0.44  l-0.774,0.775L27.193,12.95z"/><rect x="18.75" y="9.24" width="0.874" height="0.875"/><rect x="25.441" y="9.24" width="0.83" height="0.875"/><rect x="20.455" y="9.24" width="0.831" height="0.875"/><rect x="27.104" y="9.24" width="0.875" height="0.875"/><rect x="27.104" y="7.577" width="0.875" height="0.831"/><rect x="27.104" y="4.253" width="0.875" height="0.831"/><rect x="27.104" y="2.591" width="0.875" height="0.831"/><rect x="27.104" y="5.915" width="0.875" height="0.831"/><rect x="27.104" y="0.885" width="0.875" height="0.875"/><rect x="23.779" y="0.885" width="0.83" height="0.875"/><rect x="20.455" y="0.885" width="0.831" height="0.875"/><rect x="22.117" y="0.885" width="0.831" height="0.875"/><rect x="25.441" y="0.885" width="0.83" height="0.875"/><rect x="18.75" y="0.885" width="0.874" height="0.875"/><rect x="18.75" y="2.591" width="0.874" height="0.831"/><rect x="18.75" y="7.577" width="0.874" height="0.831"/><text x="0" y="34.691" fill="#000000" font-size="5px" font-weight="bold" font-family="'Helvetica Neue', Helvetica, Arial-Unicode, Arial, Sans-serif">Created by Maxim Basinski</text><text x="0" y="39.691" fill="#000000" font-size="5px" font-weight="bold" font-family="'Helvetica Neue', Helvetica, Arial-Unicode, Arial, Sans-serif">from the Noun Project</text></svg>