<svg xmlns="http://www.w3.org/2000/svg" xmlns:xlink="http://www.w3.org/1999/xlink" version="1.1" x="0px" y="0px" viewBox="0 0 30 32.894999999999996" enable-background="new 0 0 30 26.316" xml:space="preserve"><rect x="13.395" y="14.603" width="3.211" height="0.902"/><rect x="8.381" y="14.603" width="3.211" height="0.902"/><rect x="18.408" y="14.603" width="3.211" height="0.902"/><rect x="11.592" y="5.002" width="6.816" height="0.903"/><rect x="13.997" y="23.097" width="2.007" height="0.902"/><path d="M24.468,18.47v2.313h-2.899v-3.486h3.804v-3.58V6.793V4.115V3.213V0H4.629v3.213v0.902v2.678v6.923v3.58h3.803v3.486H5.533  V18.47H0v5.531h5.532v-2.314h3.802v-4.391h5.213v3.486h-2.314v5.533h5.533v-5.533h-2.314v-3.486h5.215v4.391h3.802v2.314H30V18.47  H24.468z M4.629,23.097H0.902v-3.727h3.727V23.097z M16.863,25.412h-3.728v-3.725h3.728V25.412z M24.468,12.813H5.532V7.696h18.936  V12.813z M5.532,0.903h18.936v2.31H5.532V0.903z M5.532,4.115h18.936v2.678H5.532V4.115z M5.532,13.717h18.936v2.678H5.532V13.717z   M29.098,23.097h-3.727v-3.727h3.727V23.097z"/><rect x="26.23" y="20.783" width="2.006" height="0.904"/><rect x="1.764" y="20.783" width="2.006" height="0.904"/><rect x="6.836" y="1.606" width="0.903" height="0.903"/><rect x="8.643" y="1.606" width="0.902" height="0.903"/><rect x="10.448" y="1.606" width="0.903" height="0.903"/><text x="0" y="41.316" fill="#000000" font-size="5px" font-weight="bold" font-family="'Helvetica Neue', Helvetica, Arial-Unicode, Arial, Sans-serif">Created by Maxim Basinski</text><text x="0" y="46.316" fill="#000000" font-size="5px" font-weight="bold" font-family="'Helvetica Neue', Helvetica, Arial-Unicode, Arial, Sans-serif">from the Noun Project</text></svg>