<svg xmlns="http://www.w3.org/2000/svg" xmlns:xlink="http://www.w3.org/1999/xlink" version="1.1" x="0px" y="0px" viewBox="0 0 30 47.38374999999999" enable-background="new 0 0 30 37.907" xml:space="preserve"><path d="M26.184,21.266c-0.656,0-1.271,0.255-1.731,0.718c-0.046,0.047-0.091,0.094-0.134,0.143  c-0.041-0.047-0.084-0.094-0.129-0.141c-0.463-0.465-1.08-0.72-1.734-0.72s-1.27,0.255-1.73,0.718  c-0.045,0.047-0.09,0.094-0.132,0.143c-0.041-0.049-0.084-0.096-0.13-0.141c-0.464-0.465-1.08-0.72-1.732-0.72  c-0.457,0-0.895,0.124-1.275,0.356v-2.771c1.318-0.839,2.129-2.278,2.129-3.854c0-2.525-2.057-4.582-4.583-4.582  c-2.524,0-4.58,2.056-4.58,4.582c0,1.576,0.812,3.016,2.128,3.854v10.461c-1.531-0.909-3.264-1.387-5.072-1.387  c-1.353,0-2.451,1.101-2.451,2.452s1.1,2.453,2.451,2.453c2.797,0,5.072,2.274,5.072,5.072h1.178c0-3.447-2.804-6.252-6.25-6.252  c-0.703,0-1.273-0.57-1.273-1.273s0.57-1.275,1.273-1.275c1.933,0,3.768,0.618,5.306,1.786c0.178,0.136,0.417,0.157,0.618,0.058  c0.199-0.099,0.326-0.304,0.326-0.527V15c0-0.342,0.133-0.662,0.375-0.9c0.24-0.24,0.561-0.373,0.899-0.373  c0.342,0,0.661,0.133,0.901,0.374c0.242,0.24,0.373,0.56,0.373,0.901v8.721c0,0.324,0.266,0.589,0.59,0.589s0.59-0.265,0.59-0.589  c0-0.341,0.133-0.661,0.371-0.9c0.244-0.242,0.564-0.375,0.904-0.375s0.66,0.133,0.899,0.373c0.239,0.239,0.371,0.562,0.371,0.904  c0,0,0,0,0,0.001c0.001,0.324,0.265,0.588,0.59,0.588c0.324,0,0.589-0.264,0.589-0.589c0-0.341,0.133-0.662,0.377-0.904  c0.241-0.24,0.561-0.373,0.898-0.373c0.34,0,0.66,0.133,0.898,0.373c0.241,0.241,0.373,0.563,0.373,0.904  c0,0.324,0.266,0.589,0.59,0.589s0.588-0.264,0.588-0.589c0-0.001,0-0.001,0-0.002c0-0.339,0.136-0.659,0.381-0.902  c0.24-0.242,0.56-0.373,0.898-0.373c0.338,0,0.657,0.133,0.898,0.373c0.24,0.242,0.375,0.563,0.375,0.902v14.186h1.178V23.722  c0-0.652-0.255-1.27-0.719-1.734C27.451,21.521,26.836,21.266,26.184,21.266z M15,12.548c-0.654,0-1.27,0.254-1.73,0.716  c-0.465,0.461-0.721,1.078-0.721,1.735v2.347C11.951,16.722,11.6,15.891,11.6,15c0-1.877,1.525-3.403,3.401-3.403  c1.877,0,3.405,1.526,3.405,3.403c0,0.892-0.354,1.724-0.951,2.347V15c0-0.656-0.256-1.272-0.719-1.733  C16.271,12.803,15.656,12.548,15,12.548z"/><path d="M18.747,10.421l0.833,0.832l1.871-1.87v-3.46c0.83-0.254,1.439-1.02,1.439-1.932c0-1.119-0.91-2.029-2.029-2.029  c-1.118,0-2.028,0.91-2.028,2.029c0,0.912,0.608,1.678,1.44,1.932v2.972L18.747,10.421z M20.012,3.992  c0-0.469,0.381-0.851,0.852-0.851c0.469,0,0.851,0.382,0.851,0.851s-0.382,0.852-0.851,0.852C20.393,4.842,20.012,4.46,20.012,3.992  z"/><rect x="14.412" y="5.572" width="1.178" height="1.133"/><rect x="14.412" y="7.837" width="1.178" height="1.133"/><rect x="21.029" y="14.41" width="1.134" height="1.178"/><rect x="23.296" y="14.41" width="1.134" height="1.178"/><rect x="5.57" y="14.41" width="1.134" height="1.178"/><rect x="7.837" y="14.41" width="1.134" height="1.178"/><path d="M8.551,5.923v3.46l1.869,1.87l0.833-0.832L9.729,8.896V5.921c0.83-0.254,1.439-1.018,1.439-1.93  c0-1.119-0.91-2.029-2.029-2.029s-2.029,0.91-2.029,2.029C7.109,4.904,7.721,5.669,8.551,5.923z M9.139,3.14  c0.469,0,0.852,0.382,0.852,0.852c0,0.469-0.383,0.851-0.852,0.851S8.288,4.46,8.288,3.992C8.289,3.522,8.67,3.14,9.139,3.14z"/><path d="M15,4.057c1.119,0,2.029-0.911,2.029-2.028C17.029,0.91,16.119,0,15,0s-2.029,0.91-2.029,2.029  C12.973,3.146,13.882,4.057,15,4.057z M15,1.177c0.469,0,0.852,0.382,0.852,0.852c0,0.469-0.383,0.85-0.852,0.85  s-0.852-0.381-0.852-0.85C14.15,1.559,14.531,1.177,15,1.177z"/><path d="M27.973,12.971c-1.119,0-2.029,0.91-2.029,2.028c0,1.119,0.91,2.029,2.029,2.029C29.09,17.029,30,16.119,30,15  C30,13.881,29.09,12.971,27.973,12.971z M27.973,15.85c-0.47,0-0.852-0.382-0.852-0.851s0.382-0.852,0.852-0.852  c0.469,0,0.851,0.383,0.851,0.852C28.822,15.469,28.439,15.85,27.973,15.85z"/><path d="M2.029,12.971C0.911,12.971,0,13.881,0,15c0,1.119,0.911,2.029,2.029,2.029c1.119,0,2.029-0.91,2.029-2.029  C4.059,13.881,3.146,12.971,2.029,12.971z M2.029,15.85c-0.469,0-0.852-0.382-0.852-0.851s0.383-0.852,0.852-0.852  S2.88,14.531,2.88,15C2.88,15.469,2.498,15.85,2.029,15.85z"/><text x="0" y="52.907" fill="#000000" font-size="5px" font-weight="bold" font-family="'Helvetica Neue', Helvetica, Arial-Unicode, Arial, Sans-serif">Created by Maxim Basinski</text><text x="0" y="57.907" fill="#000000" font-size="5px" font-weight="bold" font-family="'Helvetica Neue', Helvetica, Arial-Unicode, Arial, Sans-serif">from the Noun Project</text></svg>